# xmcd CD database file
#
# Track frame offsets:
#	150
#	18133
#	36526
#	52895
#	67280
#	81865
#	99616
#	116027
#	132363
#	149434
#	164129
#	181185
#	198360
#	216841
#	230217
#
# Disc length: 3235 seconds
#
# Revision: 0
# Processed by: cddbd v1.5.2PL0 Copyright (c) Steve Scherf et al.
# Submitted via: CDex 1.51
#
DISCID=e60ca10f
DTITLE=Duncan Townsend - Up Sides Down
DYEAR=2012
DGENRE=Blues
TTITLE0=Dodging The Rain
TTITLE1=Free Like You 
TTITLE2=Let Go
TTITLE3=All You Had To Do 
TTITLE4=Rockbottom 
TTITLE5=Like The Wind 
TTITLE6=Wonderful Romance
TTITLE7=Hours On The Run
TTITLE8=Take Me Down 
TTITLE9=True Professional
TTITLE10=Beauty Of Hindsight
TTITLE11=You Are Mine 
TTITLE12=Got Me Falling
TTITLE13=How Could I Ever
TTITLE14=Shine On Me
EXTD=YEAR: 2012
EXTT0=
EXTT1=
EXTT2=
EXTT3=
EXTT4=
EXTT5=
EXTT6=
EXTT7=
EXTT8=
EXTT9=
EXTT10=
EXTT11=
EXTT12=
EXTT13=
EXTT14=
PLAYORDER=
